<svg xmlns="http://www.w3.org/2000/svg" viewBox="0 0 1080 1080"><defs><linearGradient id="a" x1="439.31" x2="641.64" y1="528.9" y2="528.9" gradientUnits="userSpaceOnUse"><stop offset="0" stop-color="#120135"/><stop offset=".14" stop-color="#2f005d"/><stop offset=".25" stop-color="#430078"/><stop offset=".32" stop-color="indigo"/><stop offset=".47" stop-color="#4e0687"/><stop offset=".66" stop-color="#581798"/><stop offset=".88" stop-color="#6833b3"/><stop offset="1" stop-color="#7346c6"/></linearGradient><linearGradient id="b" x1="366.6" x2="712.79" y1="376.37" y2="574.65" gradientUnits="userSpaceOnUse"><stop offset="0" stop-color="#25014a"/><stop offset=".06" stop-color="#32005d"/><stop offset=".15" stop-color="#3f0071"/><stop offset=".24" stop-color="#48007d"/><stop offset=".32" stop-color="indigo"/><stop offset=".69" stop-color="#5f24a5"/><stop offset="1" stop-color="#7346c6"/></linearGradient></defs><path fill="url(#a)" stroke="#4e007f" stroke-miterlimit="10" stroke-width="2" d="m540.02 426.08-100.7 205.63s74.92-40.07 100.88-40.22c25.99-.15 101.44 39 101.44 39l-101.62-204.4Z"/><path fill="url(#b)" stroke="#4e007f" stroke-miterlimit="10" stroke-width="3" d="M539.91 331.68c.17 0 150.02 284.26 150.02 284.26l3.18 5.78c8.33-11.96 20.57-26.96 27.91-39.63 53.39-92.12 25.53-209.84-63.35-270.57-101.79-69.56-235.74-35.98-297.11 67.4-46.07 77.61-32.94 174.43 26.13 241.32z"/><path fill="#e6e6e6" d="M239.18 770.87h-11.92l-6.73-14.7h-39.01l-6.73 14.7h-11.84l21.67-47.76c3.33-7.39 7.35-12.61 16.41-12.61s13 5.22 16.41 12.61l21.75 47.76Zm-32.66-45.23c-1.16-2.52-2.63-4.09-5.49-4.09s-4.33 1.57-5.5 4.09l-8.98 19.49h28.87zM254.89 711.37v34.88c0 9.74 3.33 12.44 14.47 12.44h35.29v12.18h-35.29c-17.49 0-25.54-6.79-25.54-24.62v-34.88zM335.23 723.2c-10.37 0-13.47 4.44-14.24 12.35h55.26v11.13h-55.26c.77 7.92 3.87 12.27 14.24 12.27h41.95v11.92h-41.95c-18.96 0-25.54-10.18-25.54-29.75s6.58-29.75 25.54-29.75h41.95v11.83zM440.26 770.87l-11.53-17.4c-1.47-2.26-5.34-7.39-10.22-7.39h-18.65v24.79h-11.07v-59.5h11.07v23.66h17.34c4.88 0 8.9-5.13 10.45-7.31l11.3-16.35h14.78l-16.56 21.57c-2.01 2.7-4.57 5.48-8.13 7.31 4.41 1.65 7.28 4.7 9.44 7.74l16.56 22.88zM533.14 770.87h-11.92l-6.73-14.7h-39.01l-6.73 14.7h-11.84l21.67-47.76c3.33-7.39 7.35-12.61 16.41-12.61s13 5.22 16.41 12.61l21.75 47.76Zm-32.66-45.23c-1.16-2.52-2.63-4.09-5.5-4.09s-4.33 1.57-5.49 4.09l-8.98 19.49h28.87zM603.42 738.43v32.45h-41.95c-18.96 0-25.46-10.26-25.46-29.84s6.5-29.66 25.46-29.66h41.33v12.09h-41.33c-12.61 0-14.16 6.18-14.16 17.57s1.55 17.66 14.16 17.66h30.88v-20.27zM638.41 723.2c-10.37 0-13.47 4.44-14.24 12.35h55.26v11.13h-55.26c.77 7.92 3.87 12.27 14.24 12.27h41.95v11.92h-41.95c-18.96 0-25.54-10.18-25.54-29.75s6.58-29.75 25.54-29.75h41.95v11.83zM703.04 770.87h-11.07v-59.5h7.82c14.24 0 18.11 5.13 31.5 25.92 12.62 19.57 13.54 20.96 19.27 20.96h.08v-46.89h11.07v59.5h-7.82c-13.08 0-17.03-4.7-31.5-26.01-13.54-19.92-13.93-20.88-19.27-20.88h-.08zM839.88 723.46h-41.87c-12.69 0-14.24 6.26-14.24 17.66s1.55 17.57 14.24 17.57h41.87v12.18h-41.87c-19.04 0-25.54-10.18-25.54-29.75s6.5-29.75 25.54-29.75h41.87zM860.24 711.37l16.25 22.01c1.62 2.26 3.71 4.52 5.26 7.57 1.55-3.04 3.64-5.31 5.34-7.57l16.25-22.01h16.1l-26.16 32.1c-1.7 2.09-5.96 6.79-5.96 10.35v17.05h-11.07v-17.05c0-3.65-4.33-8.35-5.96-10.35l-26.16-32.1z"/></svg>