<svg xmlns="http://www.w3.org/2000/svg" viewBox="0 0 1080 1080"><path d="M241.4 775.5h-12l-6.6-14.7h-39l-6.8 14.7h-11.8l21.7-47.7c3.3-7.4 7.3-12.6 16.4-12.6s13 5.2 16.4 12.6zm-32.7-45.2c-1.1-2.5-2.6-4-5.4-4s-4.4 1.5-5.5 4l-9 19.5h28.8zM257.1 716v35c0 9.7 3.3 12.4 14.5 12.4h35.3v12.1h-35.3c-17.5 0-25.6-6.7-25.6-24.6V716zM337.4 727.9c-10.3 0-13.4 4.4-14.2 12.3h55.3v11.1h-55.3c.8 8 3.9 12.3 14.2 12.3h42v12h-42c-19 0-25.5-10.3-25.5-29.8s6.6-29.8 25.5-29.8h42V728zM442.5 775.5l-11.6-17.4c-1.4-2.2-5.3-7.4-10.2-7.4h-18.6v24.8H391V716h11v23.7h17.4c4.9 0 8.9-5.1 10.5-7.3l11.2-16.3H456l-16.5 21.5a24 24 0 0 1-8.2 7.3c4.4 1.7 7.3 4.7 9.5 7.8l16.5 22.8zM535.3 775.5h-11.9l-6.7-14.7h-39l-6.8 14.7h-11.8l21.7-47.7c3.3-7.4 7.3-12.6 16.4-12.6s13 5.2 16.4 12.6zm-32.6-45.2c-1.2-2.5-2.7-4-5.5-4s-4.4 1.5-5.5 4l-9 19.5h28.9zM605.6 743v32.5h-42c-19 0-25.4-10.2-25.4-29.8s6.5-29.7 25.4-29.7H605v12.1h-41.4c-12.6 0-14.1 6.2-14.1 17.6s1.5 17.7 14.1 17.7h31V743h11M640.6 727.9c-10.4 0-13.5 4.4-14.3 12.3h55.3v11.1h-55.3c.8 8 3.9 12.3 14.3 12.3h42v12h-42c-19 0-25.6-10.3-25.6-29.8s6.6-29.8 25.6-29.8h42V728zM705.2 775.5h-11V716h7.7c14.3 0 18.1 5.2 31.5 26 12.6 19.5 13.6 21 19.3 21v-47h11.1v59.5H756c-13 0-17-4.7-31.5-26-13.5-19.9-13.9-20.8-19.2-20.8h-.1zM842 728.1h-41.9c-12.7 0-14.2 6.3-14.2 17.7s1.6 17.6 14.2 17.6h42v12.1h-42c-19 0-25.5-10.1-25.5-29.7s6.5-29.8 25.5-29.8h42zM862.4 716l16.2 22c1.6 2.3 3.7 4.6 5.3 7.6 1.5-3 3.6-5.3 5.3-7.6l16.3-22h16l-26.1 32.1c-1.7 2.1-6 6.8-6 10.4v17h-11v-17c0-3.7-4.4-8.4-6-10.4l-26.2-32zM542.1 430.7 441.4 636.3s75-40 100.9-40.2 101.4 39 101.4 39z"/><path d="M389 624.8c-59.1-66.8-71.9-160.4-27.6-239A209 209 0 0 1 663 318.1a204 204 0 0 1 58.7 271c-7.5 12.5-18.2 25.1-26.5 37.1l-1.3-2.2S542.3 336.3 542 336.3"/></svg>